#!OML:ASF F:\VICON\USERDATA\INSTALL\rory3\rory3.ASF
:FULLY-SPECIFIED
:DEGREES
257
root 0.94781 24.0678 -6.42505 6.271 -2.22591 1.12559
lowerback 10.0254 0.576053 -1.63477
upperback 1.94123 0.714699 3.0335
thorax -3.65888 0.383967 3.99249
lowerneck -9.68041 -2.54483 -10.8486
upperneck 29.0264 -2.45468 3.99616
head 11.1952 -1.81145 3.03327
rclavicle 2.18663e-015 1.90833e-014
rhumerus -41.1094 22.3834 -63.5201
rradius 91.6311
rwrist 4.28734
rhand -3.50803 11.1587
rfingers 7.12502
rthumb 22.2263 -17.5834
lclavicle 2.18663e-015 1.90833e-014
lhumerus -32.0102 1.67973 51.4413
lradius 70.7154
lwrist -5.20388
lhand -28.8731 22.3319
lfingers 7.12502
lthumb -2.22913 52.3
rfemur -11.0854 -2.99006 19.3864
rtibia 44.9777
rfoot 32.9599 -4.33839
rtoes 20.4114
lfemur -10.4652 1.40367 -20.5204
ltibia 41.2882
lfoot 38.8792 -10.1732
ltoes 12.408
258
root 0.939159 24.2543 -6.26232 6.3552 -2.11533 1.01763
lowerback 10.1294 0.49611 -1.65152
upperback 2.0046 0.608671 3.11166
thorax -3.64276 0.330741 4.09827
lowerneck -8.99187 -2.5104 -11.1771
upperneck 29.2487 -2.47478 4.17517
head 11.1532 -1.84675 3.16099
rclavicle 2.38542e-015 2.38542e-015
rhumerus -40.1672 21.6253 -64.3459
rradius 88.2926
rwrist 4.08487
rhand -4.5357 11.0557
rfingers 7.12502
rthumb 21.2395 -17.8006
lclavicle 2.38542e-015 2.38542e-015
lhumerus -31.7777 1.69504 52.3141
lradius 67.423
lwrist -4.50454
lhand -30.4338 21.7656
lfingers 7.12502
lthumb -3.7364 51.7125
rfemur -12.0479 -3.43501 19.8092
rtibia 45.2129
rfoot 31.9496 -4.51774
rtoes 18.4175
lfemur -11.7842 1.47394 -20.4039
ltibia 42.3727
lfoot 38.027 -10.0681
ltoes 12.0748
259
root 0.930135 24.4185 -6.10257 6.4047 -1.95597 0.942164
lowerback 10.2089 0.407343 -1.74215
upperback 2.07916 0.483609 3.20581
thorax -3.59998 0.268288 4.26568
lowerneck -8.28617 -2.41842 -11.2365
upperneck 29.4517 -2.3904 4.06663
head 11.0837 -1.83826 3.14799
rclavicle -5.96354e-015 9.54166e-015
rhumerus -39.201 20.9157 -65.1559
rradius 84.9335
rwrist 3.88231
rhand -5.14695 11.0603
rfingers 7.12502
rthumb 20.6522 -17.8609
lclavicle -5.96354e-015 9.54166e-015
lhumerus -31.5799 1.26355 53.3765
lradius 64.3385
lwrist -2.6975
lhand -11.2888 68.5774
lfingers 7.12502
lthumb 14.7422 -98.0332
rfemur -12.9253 -3.97452 20.1981
rtibia 45.3423
rfoot 31.1264 -4.69071
rtoes 17.7436
lfemur -12.9704 1.5666 -20.3206
ltibia 43.2875
lfoot 36.9293 -10.1327
ltoes 11.0318
260
root 0.919159 24.5716 -5.94345 6.42363 -1.7205 0.770294
lowerback 10.1899 0.242854 -1.7368
upperback 2.27728 0.267268 3.33451
thorax -3.36445 0.154435 4.42536
lowerneck -7.67628 -2.29281 -11.3999
upperneck 29.4807 -2.25188 4.04697
head 10.9644 -1.80112 3.18797
rclavicle -3.37934e-015 -4.13472e-014
rhumerus -37.8451 20.2882 -65.8886
rradius 81.3618
rwrist 3.81038
rhand -6.0831 11.4241
rfingers 7.12502
rthumb 19.7525 -17.5923
lclavicle -3.37934e-015 -4.13472e-014
lhumerus -31.5517 1.51883 54.0735
lradius 61.0428
lwrist -2.8486
lhand -26.5163 25.8205
lfingers 7.12502
lthumb 0.0470851 55.8003
rfemur -13.7249 -4.53912 20.7435
rtibia 45.3493
rfoot 30.6503 -4.81265
rtoes 18.2357
lfemur -14.0827 1.57676 -20.095
ltibia 44.0306
lfoot 35.9485 -9.79999
ltoes 11.1436
261
root 0.90773 24.7228 -5.78124 6.50788 -1.65248 0.660374
lowerback 10.1472 0.136586 -1.82887
upperback 2.4857 0.116558 3.44125
thorax -3.1102 0.0728107 4.60795
lowerneck -7.14352 -2.18735 -11.6271
upperneck 29.5295 -2.12522 4.03507
head 10.8713 -1.77511 3.2398
rclavicle -1.19271e-014 -2.54444e-014
rhumerus -36.4098 19.6634 -66.4998
rradius 77.8421
rwrist 3.61192
rhand -7.67204 12.2519
rfingers 7.12502
rthumb 18.2244 -16.9143
lclavicle -1.19271e-014 -2.54444e-014
lhumerus -31.5272 1.27059 55.0162
lradius 58.0652
lwrist -2.65014
lhand -26.914 23.7215
lfingers 7.12502
lthumb -0.337068 53.701
rfemur -14.638 -4.98977 21.2134
rtibia 45.2448
rfoot 30.0083 -4.88507
rtoes 18.3555
lfemur -15.2127 1.78586 -19.9525
ltibia 44.5847
lfoot 34.8987 -9.50964
ltoes 10.9023
262
root 0.898997 24.8548 -5.62103 6.42485 -1.83744 0.628554
lowerback 10.6189 0.181751 -2.02587
upperback 2.54287 0.155454 3.50452
thorax -3.315 0.0962445 4.78691
lowerneck -6.77866 -2.09091 -11.6458
upperneck 29.9509 -1.97247 3.81994
head 10.9483 -1.74637 3.19039
rclavicle -3.18055e-015 -1.51076e-014
rhumerus -35.2785 19.0096 -67.1399
rradius 74.2604
rwrist 3.46168
rhand -9.1026 12.8738
rfingers 7.12502
rthumb 16.8477 -16.4154
lclavicle -3.18055e-015 -1.51076e-014
lhumerus -31.7323 0.461789 56.0866
lradius 55.5717
lwrist -1.93299
lhand -26.4563 22.8654
lfingers 7.12502
lthumb 0.10503 52.8451
rfemur -15.405 -5.27616 21.531
rtibia 45.0458
rfoot 28.8576 -4.98202
rtoes 16.9432
lfemur -16.0789 2.20682 -19.9588
ltibia 44.9684
lfoot 33.6299 -9.47898
ltoes 8.67708
263
root 0.887202 24.9632 -5.46616 6.25671 -2.06681 0.614776
lowerback 11.2222 0.186191 -2.32222
upperback 2.59289 0.126948 3.58013
thorax -3.59289 0.0889606 5.0473
lowerneck -6.22744 -1.92005 -11.6619
upperneck 30.0768 -1.72153 3.54085
head 10.8666 -1.67288 3.12153
rclavicle -7.15625e-015 5.56597e-015
rhumerus -34.0418 18.5045 -67.8613
rradius 70.5692
rwrist 3.5005
rhand -9.45306 12.9466
rfingers 7.12502
rthumb 16.5103 -16.371
lclavicle -7.15625e-015 5.56597e-015
lhumerus -32.1088 -0.165988 57.0683
lradius 53.1466
lwrist -1.28887
lhand -25.233 21.4098
lfingers 7.12502
lthumb 1.28655 51.3857
rfemur -16.1458 -5.39799 21.8469
rtibia 44.8095
rfoot 27.8048 -5.21692
rtoes 15.2112
lfemur -16.8749 2.64336 -19.9718
ltibia 45.2158
lfoot 32.5094 -9.18257
ltoes 5.45325
264
root 0.877458 25.059 -5.31131 6.23535 -2.18936 0.599934
lowerback 11.4498 0.0398289 -2.59977
upperback 2.69647 -0.0993614 3.6742
thorax -3.58466 -0.0232329 5.34111
lowerneck -5.40727 -1.73526 -12.0313
upperneck 29.9208 -1.51237 3.53921
head 10.6351 -1.61986 3.20461
rclavicle 7.95139e-016 1.59028e-014
rhumerus -32.7313 18.245 -68.608
rradius 67.0312
rwrist 3.38661
rhand -8.12339 12.1117
rfingers 7.12502
rthumb 17.7901 -17.0945
lclavicle 7.95139e-016 1.59028e-014
lhumerus -32.3558 -0.206194 57.9509
lradius 50.2431
lwrist -1.18281
lhand -24.6409 19.5119
lfingers 7.12502
lthumb 1.85838 49.4835
rfemur -17.0179 -5.57763 22.19
rtibia 44.5973
rfoot 27.0835 -5.63508
rtoes 14.3865
lfemur -17.8397 2.92779 -19.9867
ltibia 45.3565
lfoot 31.7669 -8.306
ltoes 3.77834
